<svg width="1052" height="1125" viewBox="0 0 1052 1125" fill="none" xmlns="http://www.w3.org/2000/svg">
    <g clip-path="url(#clip0_23_2)">
        <path d="M434.917 831.402C440.794 730.195 257.36 736.729 248.264 656.756C238.223 568.475 404.088 466.624 295.501 393.764C155.785 300.018 137.796 334.812 89.2703 264.058C40.7441 193.303 -59.8904 -0.218068 105.5 -6.99988C180.58 -10.0785 499 -6.99991 499 -6.99991C499 -6.99991 610.305 -148.199 672.797 -164.784C735.29 -181.37 1058.9 -6.99993 1058.9 -6.99993C1058.9 -6.99993 928.753 -223.139 950 -254C963.629 -273.796 963.423 -294.772 985.5 -304.271C1025.81 -321.615 1035.15 -244.073 1058.9 -219.192L1058.9 -6.99993L1058.9 1089.87C1058.9 1089.87 758.927 1159.19 555.213 1090.33C351.498 1021.47 429.401 926.383 434.917 831.402Z" fill="url(#paint0_linear_23_2)"/>
    </g>
    <defs>
        <linearGradient id="paint0_linear_23_2" x1="884.892" y1="1075.44" x2="829.038" y2="-286.693" gradientUnits="userSpaceOnUse">
            <stop stop-color="#F5F8FA"/>
            <stop offset="1" stop-color="#E3E8F5"/>
        </linearGradient>
        <clipPath id="clip0_23_2">
            <rect width="1052" height="1125" fill="white"/>
        </clipPath>
    </defs>
</svg>
