<svg width="93" height="93" viewBox="0 0 93 93" fill="none" xmlns="http://www.w3.org/2000/svg">
    <path d="M51.808 20.468C52.8576 21.4786 54.0338 22.6699 55.3367 24.0419C59.3809 28.3004 63.5083 32.5611 67.719 36.8241C67.8288 36.9348 67.8846 37.0632 67.8864 37.2093L67.9488 41.6893C67.9502 41.769 67.9741 41.8421 68.0192 41.8992C68.5879 42.622 69.1738 43.3146 69.7769 43.9771C71.1339 45.4669 72.4872 46.9597 73.8371 48.4557C74.543 49.2378 75.1918 50.085 75.7834 50.9973C75.8304 51.0699 75.8543 51.0628 75.8552 50.976C75.9384 41.2739 75.949 31.4983 75.887 21.6491C75.887 21.58 75.9442 21.5242 76.0146 21.5229L76.8516 21.5202C78.9224 21.5132 80.9927 21.5039 83.0627 21.4923C83.1707 21.4915 83.2243 21.5357 83.2234 21.6252C83.0507 21.6181 82.971 21.693 82.9843 21.8497C82.9922 21.9418 82.9962 21.9919 82.9962 21.9999C82.9936 22.9901 82.9812 23.9803 82.959 24.9705C82.9422 25.7491 82.955 26.5272 82.9976 27.3048C83.0162 27.6503 83.0184 27.9957 83.0042 28.3411C82.9838 28.8531 82.9745 29.1981 82.9763 29.3761C82.9825 30.0696 82.9891 30.7631 82.9962 31.4566C83.0015 31.9801 83.0015 32.4079 82.9962 32.74C82.9829 33.5859 82.9763 34.0093 82.9763 34.0102C83.0073 38.4476 83.0166 43.6551 83.0042 49.6328C82.998 52.8223 82.998 60.0909 83.0042 71.4387C83.0051 71.6893 82.9617 71.8917 82.874 72.0458C82.8554 72.079 82.8567 72.1216 82.8793 72.1561C82.9369 72.2429 82.9519 72.3386 82.9245 72.4431L82.3373 71.812C78.7421 68.022 75.1324 64.2462 71.5081 60.4846C71.2672 60.2348 71.0838 60.02 70.958 59.8402C70.8013 59.617 70.6529 59.3752 70.513 59.1148C70.493 59.0776 70.4545 59.0551 70.412 59.0564L68.4231 59.083C68.3833 59.083 68.3461 59.0604 68.3261 59.0245C66.1827 55.0273 64.1881 50.9574 62.3423 46.8149C62.3387 46.8078 62.1518 46.4026 61.7816 45.5993C61.5407 45.0758 61.3188 44.544 61.116 44.0037C61.0504 43.8265 61.0119 43.8376 61.0004 44.0369C60.9393 45.113 60.9061 46.1896 60.9008 47.2666C60.883 51.0867 60.8636 54.9064 60.8423 58.7256C60.8299 60.9399 60.841 63.1541 60.8755 65.3684C60.887 66.1195 60.8742 66.8697 60.837 67.619C60.8357 67.6562 60.8051 67.6855 60.7679 67.6841L51.893 67.627C51.8895 67.627 51.8563 67.6186 51.7934 67.6018L51.7416 67.5885C51.7416 63.0067 51.7416 58.4249 51.7416 53.8431C51.7416 52.4755 51.7637 51.3591 51.808 50.4937L56.183 50.4818C56.2202 50.4818 56.2508 50.4512 56.2494 50.4127C56.2078 47.8353 56.2118 45.222 56.2614 42.5728C56.2627 42.5064 56.2096 42.4519 56.1445 42.4506L51.8824 42.4267C51.8439 42.4267 51.812 42.3974 51.8107 42.3602L51.7695 41.5538C51.7465 31.7852 51.7372 25.4413 51.7416 22.522C51.7425 21.7364 51.7217 21.0885 51.6791 20.5783C51.6756 20.5358 51.6822 20.5052 51.6991 20.4866C51.7239 20.4592 51.7602 20.453 51.808 20.468Z" fill="#E2E2E2"/>
    <path d="M35.2288 61.7095C35.0224 61.6661 34.8138 61.6435 34.603 61.6417C33.4516 61.6355 32.3002 61.6409 31.1487 61.6577C30.2311 61.671 29.3454 61.6705 28.4916 61.6564C26.1223 61.6183 23.753 61.6152 21.3837 61.6471C21.3439 61.6484 21.3107 61.675 21.3 61.7135C21.1495 62.2671 21.0197 62.6856 20.9108 62.969C20.3244 64.496 19.7465 66.0499 19.177 67.631C19.1637 67.6695 19.1278 67.6947 19.0866 67.6947C18.7563 67.6903 18.4396 67.6792 18.1367 67.6615C17.7461 67.6385 17.4304 67.627 17.1894 67.627C15.0336 67.627 12.8778 67.6292 10.722 67.6336C10.4412 67.6345 10.1617 67.6159 9.88363 67.5778C9.84776 67.5725 9.82517 67.5393 9.83314 67.5047C13.1572 55.1047 16.5035 42.7109 19.8718 30.3233C20.3971 28.3916 20.9453 26.466 21.5166 24.5467C21.5339 24.4896 21.587 24.4497 21.6481 24.4484C25.4682 24.4103 29.2883 24.3939 33.1084 24.3992C33.7186 24.4001 34.3169 24.4267 34.9033 24.4789C34.9631 24.4843 35.0122 24.5281 35.0255 24.5879C35.1318 25.0839 35.2509 25.5763 35.3829 26.0653C36.638 30.7161 37.8403 35.3803 38.99 40.0578C39.2973 41.3093 39.6193 42.5573 39.9558 43.8017C40.2402 44.853 40.466 45.7091 40.6334 46.3698C41.985 51.7151 43.3517 57.0564 44.7334 62.3937C45.0097 63.4592 45.2179 64.3166 45.3578 64.9658C45.5412 65.8188 45.7103 66.6846 45.8653 67.5632C45.872 67.5977 45.8441 67.6296 45.8082 67.6283C42.6258 67.5681 39.4696 67.5756 36.3395 67.6509C36.3009 67.6522 36.2664 67.6243 36.2598 67.5858C36.1349 66.9489 36.025 66.3095 35.9303 65.6673C35.8408 65.0633 35.7336 64.4238 35.6088 63.7489C35.4883 63.0987 35.3856 62.4455 35.3005 61.7892C35.2952 61.7494 35.2673 61.7175 35.2288 61.7095ZM32.1412 51.9246C32.1611 51.9246 32.1744 51.906 32.1678 51.8874C32.0269 51.4844 31.9051 51.0654 31.8024 50.6305C31.2692 48.3649 30.7041 46.1076 30.1071 43.8588C30.0195 43.5293 29.802 42.6711 29.4548 41.284C29.1714 40.1548 28.8547 39.0343 28.5049 37.9228C28.4269 37.6739 28.3663 37.4338 28.3229 37.2027C28.2777 36.9591 28.2343 36.7151 28.1927 36.4706C28.1652 36.3112 28.1258 36.3081 28.0744 36.4613C27.3428 38.6287 26.667 40.8425 26.047 43.1029C25.2649 45.954 24.4784 48.8432 23.6875 51.7705C23.6676 51.8395 23.7207 51.9086 23.7924 51.9086L32.1412 51.9246Z" fill="#E2E2E2"/>
    <path d="M50.9446 42.0905C50.8569 42.2446 50.8126 42.3425 50.8117 42.3841C50.7453 44.9873 50.7342 47.5908 50.7785 50.1948L46.1232 50.2559L43.9111 50.2201C43.8699 50.2187 43.838 50.1855 43.8367 50.1443L43.8035 42.2938C43.8022 42.1835 43.8925 42.0932 44.0028 42.0932L46.8592 42.0799C47.4668 42.0843 48.0748 42.0865 48.6833 42.0865C48.6922 42.0865 49.0478 42.0768 49.7502 42.0573C50.1487 42.0458 50.5469 42.0569 50.9446 42.0905Z" fill="#E2E2E2"/>
    <path d="M27.7861 68.7311C27.4557 68.4299 27.2467 68.2408 27.159 68.1638C26.9624 67.9919 26.8034 67.7949 26.6821 67.5725C26.5829 67.3901 26.5284 67.1505 26.5187 66.8538C26.4779 65.5766 26.4602 64.2626 26.4655 62.9119C26.4668 62.8588 26.508 62.8136 26.5612 62.8083C28.4628 62.6161 30.4162 62.5288 32.4215 62.5466C32.4893 62.5479 32.5437 62.6024 32.5437 62.6688V69.3834C32.5437 69.4272 32.5132 69.4657 32.4693 69.475C31.8112 69.6114 31.1602 69.7107 30.5163 69.7727C30.0531 69.8169 29.6612 69.7859 29.3405 69.6797C28.7985 69.499 28.2803 69.1828 27.7861 68.7311Z" fill="#E2E2E2"/>
</svg>